<svg width="64" height="64" viewBox="0 0 64 64" fill="none" xmlns="http://www.w3.org/2000/svg">
<path d="M58 32C58 32 56 56 32 58C17.6406 58 6 46.3594 6 32C6 17.6406 15.6406 5 30 5C19 33 22 32 22 32H58Z" fill="#00E070"/>
<path fill-rule="evenodd" clip-rule="evenodd" d="M46.5093 12.0516C41.7018 8.55438 35.7929 6.91107 29.8701 7.4241C23.9473 7.93712 18.409 10.5719 14.2745 14.8437C10.1399 19.1155 7.68717 24.7368 7.3677 30.6732C7.04823 36.6096 8.88348 42.4617 12.5357 47.1525C16.188 51.8433 21.4115 55.0573 27.245 56.203C33.0786 57.3487 39.1297 56.349 44.2847 53.388C49.4398 50.4269 53.352 45.7036 55.3015 40.0873C57.2509 34.4711 57.1065 28.3397 54.8946 22.8215C54.4837 21.7962 54.9817 20.6319 56.0069 20.2209C57.0322 19.81 58.1965 20.308 58.6075 21.3333C61.178 27.7463 61.3459 34.872 59.0803 41.399C56.8147 47.926 52.2681 53.4152 46.2771 56.8565C40.286 60.2977 33.2537 61.4595 26.4742 60.128C19.6946 58.7965 13.6241 55.0614 9.37957 49.6099C5.13506 44.1584 3.0022 37.3573 3.37348 30.4583C3.74476 23.5592 6.59519 17.0263 11.4002 12.0618C16.2053 7.09733 22.6417 4.03523 29.5249 3.43902C36.4082 2.8428 43.2752 4.75259 48.8623 8.81694C49.7556 9.46672 49.9529 10.7176 49.3031 11.6108C48.6534 12.504 47.4025 12.7014 46.5093 12.0516Z" fill="#00373D"/>
<path fill-rule="evenodd" clip-rule="evenodd" d="M3.33203 32C3.33203 30.8954 4.22746 30 5.33203 30H58.6654C59.7699 30 60.6654 30.8954 60.6654 32C60.6654 33.1046 59.7699 34 58.6654 34H5.33203C4.22746 34 3.33203 33.1046 3.33203 32Z" fill="#00373D"/>
<path fill-rule="evenodd" clip-rule="evenodd" d="M31.9987 3.33203C32.5605 3.33203 33.0965 3.56835 33.4754 3.98319C40.4724 11.6434 44.4488 21.5844 44.6649 31.957C44.6655 31.9848 44.6655 32.0126 44.6649 32.0404C44.4488 42.413 40.4724 52.354 33.4754 60.0142C33.0965 60.429 32.5605 60.6654 31.9987 60.6654C31.4369 60.6654 30.9009 60.429 30.522 60.0142C23.525 52.354 19.5486 42.413 19.3325 32.0404C19.3319 32.0126 19.3319 31.9848 19.3325 31.957C19.5486 21.5844 23.525 11.6434 30.522 3.98319C30.9009 3.56835 31.4369 3.33203 31.9987 3.33203ZM23.3325 31.9987C23.5216 40.6308 26.5833 48.9311 31.9987 55.6021C37.4141 48.9311 40.4758 40.6308 40.6649 31.9987C40.4758 23.3666 37.4141 15.0663 31.9987 8.3953C26.5833 15.0663 23.5216 23.3666 23.3325 31.9987Z" fill="#00373D"/>
</svg>
